<?xml version="1.0" encoding="UTF-8"?><!DOCTYPE svg PUBLIC "-//W3C//DTD SVG 1.1//EN" "http://www.w3.org/Graphics/SVG/1.1/DTD/svg11.dtd"><svg xmlns="http://www.w3.org/2000/svg" xmlns:xlink="http://www.w3.org/1999/xlink" version="1.1" id="mdi-bed" width="24" height="24" viewBox="0 0 24 24"><path d="M12 2L7 7h10l-5-5zM1.5 10a.5.5 0 00-.5.5v3a.5.5 0 00.5.5h6a.5.5 0 00.5-.5v-2a.5.5 0 00-.5-.5H5.158l-.707-.826A.5.5 0 004.072 10H1.5zm8 1a.5.5 0 00-.5.5v2a.5.5 0 00.5.5h5a.5.5 0 00.5-.5v-2a.5.5 0 00-.5-.5h-5zm7 0a.5.5 0 00-.5.5v2a.5.5 0 00.5.5h6a.5.5 0 00.5-.5v-2a.5.5 0 00-.5-.5h-6zM1.484 15a.5.5 0 100 1h21.032a.5.5 0 100-1H1.484z" /></svg>
