<?xml version="1.0" encoding="UTF-8"?><!DOCTYPE svg PUBLIC "-//W3C//DTD SVG 1.1//EN" "http://www.w3.org/Graphics/SVG/1.1/DTD/svg11.dtd"><svg xmlns="http://www.w3.org/2000/svg" xmlns:xlink="http://www.w3.org/1999/xlink" version="1.1" id="mdi-bed" width="24" height="24" viewBox="0 0 24 24"><path d="M12 2L7 7h10l-5-5zm4.855 6.568a.5.5 0 00-.425.28l-.88 1.797a.5.5 0 00.231.67l5.389 2.634a.5.5 0 00.67-.228l.879-1.797a.5.5 0 00-.23-.67l-5.391-2.635a.5.5 0 00-.243-.05zm-3.171.059a.5.5 0 00-.235.078L9.23 11.393a.5.5 0 00-.152.689l1.074 1.688a.5.5 0 00.692.152l4.217-2.686a.5.5 0 00.152-.691l-1.074-1.688a.5.5 0 00-.397-.23.5.5 0 00-.058 0zM1.5 10a.5.5 0 00-.5.5v3a.5.5 0 00.5.5h6a.5.5 0 00.5-.5v-2a.5.5 0 00-.5-.5H5.158l-.707-.826A.5.5 0 004.072 10H1.5zm-.016 5a.5.5 0 100 1h21.032a.5.5 0 100-1H1.484z" /></svg>
