<?xml version="1.0" encoding="UTF-8"?><!DOCTYPE svg PUBLIC "-//W3C//DTD SVG 1.1//EN" "http://www.w3.org/Graphics/SVG/1.1/DTD/svg11.dtd"><svg xmlns="http://www.w3.org/2000/svg" xmlns:xlink="http://www.w3.org/1999/xlink" version="1.1" id="mdi-bed" width="24" height="24" viewBox="0 0 24 24"><path d="M12 2L7 7h10l-5-5zm8.861 5.432c-.31.014-.48.306-.703.484-1.346 1.27-2.7 2.533-4.04 3.807-.206.23-.114.577.109.757.441.467.876.94 1.322 1.403.23.207.58.114.76-.11 1.437-1.355 2.882-2.703 4.316-4.062.207-.23.114-.58-.11-.76-.441-.466-.878-.94-1.324-1.402a.501.501 0 00-.33-.117zM1.5 10a.5.5 0 00-.5.5v3a.5.5 0 00.5.5h6a.5.5 0 00.5-.5v-2a.5.5 0 00-.5-.5H5.158l-.707-.826A.5.5 0 004.072 10H1.5zm8 1a.5.5 0 00-.5.5v2a.5.5 0 00.5.5h5a.5.5 0 00.5-.5v-2a.5.5 0 00-.5-.5h-5zm-8.016 4a.5.5 0 100 1h21.032a.5.5 0 100-1H1.484z" /></svg>
