<?xml version="1.0" encoding="UTF-8"?><!DOCTYPE svg PUBLIC "-//W3C//DTD SVG 1.1//EN" "http://www.w3.org/Graphics/SVG/1.1/DTD/svg11.dtd"><svg xmlns="http://www.w3.org/2000/svg" xmlns:xlink="http://www.w3.org/1999/xlink" version="1.1" id="mdi-bed" width="24" height="24" viewBox="0 0 24 24"><path d="M3.766 6.5a.5.5 0 00-.366.2L1.6 9.1a.5.5 0 00.1.7l4.8 3.6a.5.5 0 00.7-.1l1.2-1.6a.5.5 0 00-.1-.7L6.429 9.596 6.355 8.51a.5.5 0 00-.199-.367L4.1 6.6a.5.5 0 00-.276-.1.5.5 0 00-.058 0zM9.5 11a.5.5 0 00-.5.5v2a.5.5 0 00.5.5h5a.5.5 0 00.5-.5v-2a.5.5 0 00-.5-.5h-5zm7 0a.5.5 0 00-.5.5v2a.5.5 0 00.5.5h6a.5.5 0 00.5-.5v-2a.5.5 0 00-.5-.5h-6zM1.484 15a.5.5 0 100 1h21.032a.5.5 0 100-1H1.484zM7 17l5 5 5-5H7z" /></svg>
